<svg width="25" height="24" viewBox="0 0 25 24" fill="none" xmlns="http://www.w3.org/2000/svg">
<path d="M2.93478 6.21347C2.93478 5.58777 3.18214 4.98769 3.62245 4.54525C4.06275 4.10281 4.65993 3.85425 5.28261 3.85425H13.5C14.1227 3.85425 14.7199 4.10281 15.1602 4.54525C15.6005 4.98769 15.8478 5.58777 15.8478 6.21347V10.9319C15.8478 11.5576 15.6005 12.1577 15.1602 12.6001C14.7199 13.0426 14.1227 13.2911 13.5 13.2911H11.1522L7.63044 16.83V13.2911H5.28261C4.65993 13.2911 4.06275 13.0426 3.62245 12.6001C3.18214 12.1577 2.93478 11.5576 2.93478 10.9319V6.21347Z" fill="black"/>
<path d="M18.1957 8.57275V10.932C18.1957 12.1834 17.7009 13.3835 16.8203 14.2684C15.9397 15.1533 14.7454 15.6504 13.5 15.6504H12.1242L10.051 17.7348C10.3797 17.9106 10.7542 18.0097 11.1522 18.0097H13.5L17.0217 21.5485V18.0097H19.3696C19.9923 18.0097 20.5894 17.7611 21.0297 17.3186C21.47 16.8762 21.7174 16.2761 21.7174 15.6504V10.932C21.7174 10.3063 21.47 9.70619 21.0297 9.26375C20.5894 8.82131 19.9923 8.57275 19.3696 8.57275H18.1957Z" fill="black"/>
</svg>
