<svg width="24" height="24" viewBox="0 0 24 24" fill="none" xmlns="http://www.w3.org/2000/svg">
<path d="M11.2 2.57143C11.2 2.3441 11.2843 2.12608 11.4343 1.96534C11.5843 1.80459 11.7878 1.71429 12 1.71429H23.2C23.4122 1.71429 23.6157 1.80459 23.7657 1.96534C23.9157 2.12608 24 2.3441 24 2.57143V4.28571C24 4.51304 23.9157 4.73106 23.7657 4.89181C23.6157 5.05255 23.4122 5.14286 23.2 5.14286H12C11.7878 5.14286 11.5843 5.05255 11.4343 4.89181C11.2843 4.73106 11.2 4.51304 11.2 4.28571V2.57143ZM3.2 0C2.35131 0 1.53737 0.361224 0.937258 1.00421C0.337142 1.64719 0 2.51926 0 3.42857L0 6.85714C0 7.76646 0.337142 8.63853 0.937258 9.28151C1.53737 9.92449 2.35131 10.2857 3.2 10.2857H6.4C7.24869 10.2857 8.06263 9.92449 8.66274 9.28151C9.26286 8.63853 9.6 7.76646 9.6 6.85714V3.42857C9.6 2.51926 9.26286 1.64719 8.66274 1.00421C8.06263 0.361224 7.24869 0 6.4 0H3.2ZM3.2 13.7143C2.35131 13.7143 1.53737 14.0755 0.937258 14.7185C0.337142 15.3615 0 16.2335 0 17.1429L0 20.5714C0 21.4807 0.337142 22.3528 0.937258 22.9958C1.53737 23.6388 2.35131 24 3.2 24H6.4C7.24869 24 8.06263 23.6388 8.66274 22.9958C9.26286 22.3528 9.6 21.4807 9.6 20.5714V17.1429C9.6 16.2335 9.26286 15.3615 8.66274 14.7185C8.06263 14.0755 7.24869 13.7143 6.4 13.7143H3.2ZM4.5664 7.464C4.49209 7.54382 4.40381 7.60715 4.30661 7.65036C4.20942 7.69358 4.10523 7.71582 4 7.71582C3.89477 7.71582 3.79058 7.69358 3.69339 7.65036C3.59619 7.60715 3.50791 7.54382 3.4336 7.464L1.8336 5.74971C1.75922 5.67002 1.70022 5.57541 1.65996 5.47129C1.61971 5.36716 1.59899 5.25556 1.59899 5.14286C1.59899 5.03015 1.61971 4.91855 1.65996 4.81443C1.70022 4.7103 1.75922 4.61569 1.8336 4.536C1.90798 4.45631 1.99628 4.39309 2.09347 4.34996C2.19065 4.30683 2.29481 4.28463 2.4 4.28463C2.50519 4.28463 2.60935 4.30683 2.70653 4.34996C2.80372 4.39309 2.89202 4.45631 2.9664 4.536L4 5.64514L6.6336 2.82171C6.70798 2.74202 6.79628 2.6788 6.89347 2.63567C6.99065 2.59254 7.09481 2.57035 7.2 2.57035C7.30519 2.57035 7.40935 2.59254 7.50653 2.63567C7.60372 2.6788 7.69202 2.74202 7.7664 2.82171C7.84078 2.90141 7.89978 2.99602 7.94004 3.10014C7.98029 3.20427 8.00101 3.31587 8.00101 3.42857C8.00101 3.54128 7.98029 3.65288 7.94004 3.757C7.89978 3.86112 7.84078 3.95574 7.7664 4.03543L4.5664 7.464ZM4.5664 21.1783C4.49209 21.2581 4.40381 21.3214 4.30661 21.3647C4.20942 21.4079 4.10523 21.4301 4 21.4301C3.89477 21.4301 3.79058 21.4079 3.69339 21.3647C3.59619 21.3214 3.50791 21.2581 3.4336 21.1783L1.8336 19.464C1.68338 19.3031 1.59899 19.0848 1.59899 18.8571C1.59899 18.6295 1.68338 18.4112 1.8336 18.2503C1.98382 18.0893 2.18756 17.9989 2.4 17.9989C2.61244 17.9989 2.81618 18.0893 2.9664 18.2503L4 19.3594L6.6336 16.536C6.78382 16.3751 6.98756 16.2846 7.2 16.2846C7.41244 16.2846 7.61618 16.3751 7.7664 16.536C7.91662 16.6969 8.00101 16.9152 8.00101 17.1429C8.00101 17.3705 7.91662 17.5888 7.7664 17.7497L4.5664 21.1783ZM11.2 16.2857C11.2 16.0584 11.2843 15.8404 11.4343 15.6796C11.5843 15.5189 11.7878 15.4286 12 15.4286H23.2C23.4122 15.4286 23.6157 15.5189 23.7657 15.6796C23.9157 15.8404 24 16.0584 24 16.2857V18C24 18.2273 23.9157 18.4453 23.7657 18.6061C23.6157 18.7668 23.4122 18.8571 23.2 18.8571H12C11.7878 18.8571 11.5843 18.7668 11.4343 18.6061C11.2843 18.4453 11.2 18.2273 11.2 18V16.2857ZM11.2 7.71429C11.2 7.48696 11.2843 7.26894 11.4343 7.10819C11.5843 6.94745 11.7878 6.85714 12 6.85714H20C20.2122 6.85714 20.4157 6.94745 20.5657 7.10819C20.7157 7.26894 20.8 7.48696 20.8 7.71429C20.8 7.94161 20.7157 8.15963 20.5657 8.32038C20.4157 8.48112 20.2122 8.57143 20 8.57143H12C11.7878 8.57143 11.5843 8.48112 11.4343 8.32038C11.2843 8.15963 11.2 7.94161 11.2 7.71429ZM11.2 21.4286C11.2 21.2012 11.2843 20.9832 11.4343 20.8225C11.5843 20.6617 11.7878 20.5714 12 20.5714H20C20.2122 20.5714 20.4157 20.6617 20.5657 20.8225C20.7157 20.9832 20.8 21.2012 20.8 21.4286C20.8 21.6559 20.7157 21.8739 20.5657 22.0347C20.4157 22.1954 20.2122 22.2857 20 22.2857H12C11.7878 22.2857 11.5843 22.1954 11.4343 22.0347C11.2843 21.8739 11.2 21.6559 11.2 21.4286Z" fill="url(#paint0_linear_452_2375)" fill-opacity="0.79"/>
<defs>
<linearGradient id="paint0_linear_452_2375" x1="31.4333" y1="13.4063" x2="-4.0309" y2="13.7618" gradientUnits="userSpaceOnUse">
<stop stop-color="#434343"/>
<stop offset="0.973958"/>
</linearGradient>
</defs>
</svg>
